<mxfile host="app.diagrams.net" modified="2023-05-02T10:28:06.331Z" agent="Mozilla/5.0 (Windows NT 10.0; Win64; x64) AppleWebKit/537.36 (KHTML, like Gecko) Chrome/112.0.0.0 Safari/537.36" etag="C3dvF5AG1bcrBo98KoUr" version="21.2.1" type="device">
  <diagram id="C5RBs43oDa-KdzZeNtuy" name="Page-1">
    <mxGraphModel dx="1050" dy="541" grid="1" gridSize="10" guides="1" tooltips="1" connect="1" arrows="1" fold="1" page="1" pageScale="1" pageWidth="827" pageHeight="1169" math="0" shadow="0">
      <root>
        <mxCell id="WIyWlLk6GJQsqaUBKTNV-0" />
        <mxCell id="WIyWlLk6GJQsqaUBKTNV-1" parent="WIyWlLk6GJQsqaUBKTNV-0" />
        <mxCell id="wjnB7LqlIOZ15J7eguzu-0" value="PSU&lt;br&gt;20V&lt;br&gt;9V&lt;br&gt;5V" style="rounded=0;whiteSpace=wrap;html=1;fillColor=none;fontColor=#000000;strokeColor=#C73500;" parent="WIyWlLk6GJQsqaUBKTNV-1" vertex="1">
          <mxGeometry x="80" y="40" width="720" height="80" as="geometry" />
        </mxCell>
        <mxCell id="wjnB7LqlIOZ15J7eguzu-5" value="" style="edgeStyle=orthogonalEdgeStyle;rounded=0;orthogonalLoop=1;jettySize=auto;html=1;" parent="WIyWlLk6GJQsqaUBKTNV-1" source="wjnB7LqlIOZ15J7eguzu-1" target="wjnB7LqlIOZ15J7eguzu-4" edge="1">
          <mxGeometry relative="1" as="geometry" />
        </mxCell>
        <mxCell id="wjnB7LqlIOZ15J7eguzu-1" value="Audio In&lt;br&gt;&lt;br&gt;Jack mono&lt;br&gt;Jack stereo&lt;br&gt;RCA&lt;br&gt;(bluetooth)" style="rounded=1;whiteSpace=wrap;html=1;" parent="WIyWlLk6GJQsqaUBKTNV-1" vertex="1">
          <mxGeometry x="80" y="280" width="120" height="240" as="geometry" />
        </mxCell>
        <mxCell id="wjnB7LqlIOZ15J7eguzu-7" value="" style="edgeStyle=orthogonalEdgeStyle;rounded=0;orthogonalLoop=1;jettySize=auto;html=1;" parent="WIyWlLk6GJQsqaUBKTNV-1" source="wjnB7LqlIOZ15J7eguzu-4" target="wjnB7LqlIOZ15J7eguzu-6" edge="1">
          <mxGeometry relative="1" as="geometry" />
        </mxCell>
        <mxCell id="wjnB7LqlIOZ15J7eguzu-4" value="Toon Controle" style="rounded=1;whiteSpace=wrap;html=1;" parent="WIyWlLk6GJQsqaUBKTNV-1" vertex="1">
          <mxGeometry x="280" y="280" width="120" height="240" as="geometry" />
        </mxCell>
        <mxCell id="wjnB7LqlIOZ15J7eguzu-9" value="" style="edgeStyle=orthogonalEdgeStyle;rounded=0;orthogonalLoop=1;jettySize=auto;html=1;" parent="WIyWlLk6GJQsqaUBKTNV-1" source="wjnB7LqlIOZ15J7eguzu-6" target="wjnB7LqlIOZ15J7eguzu-8" edge="1">
          <mxGeometry relative="1" as="geometry" />
        </mxCell>
        <mxCell id="wjnB7LqlIOZ15J7eguzu-6" value="Versterken" style="rounded=1;whiteSpace=wrap;html=1;" parent="WIyWlLk6GJQsqaUBKTNV-1" vertex="1">
          <mxGeometry x="480" y="280" width="120" height="240" as="geometry" />
        </mxCell>
        <mxCell id="wjnB7LqlIOZ15J7eguzu-8" value="Audio Out" style="rounded=1;whiteSpace=wrap;html=1;" parent="WIyWlLk6GJQsqaUBKTNV-1" vertex="1">
          <mxGeometry x="680" y="280" width="120" height="240" as="geometry" />
        </mxCell>
        <mxCell id="wjnB7LqlIOZ15J7eguzu-10" value="" style="rounded=0;whiteSpace=wrap;html=1;fillColor=none;strokeColor=#6F0000;fontColor=#ffffff;" parent="WIyWlLk6GJQsqaUBKTNV-1" vertex="1">
          <mxGeometry x="60" y="260" width="360" height="280" as="geometry" />
        </mxCell>
        <mxCell id="wjnB7LqlIOZ15J7eguzu-11" value="&lt;span style=&quot;font-family: Arial, Helvetica, sans-serif; font-size: 13px; text-align: start; background-color: rgb(255, 255, 255);&quot;&gt;&lt;font color=&quot;#cc0000&quot;&gt;TDA7439DS13TR&lt;/font&gt;&lt;/span&gt;" style="text;html=1;strokeColor=none;fillColor=none;align=center;verticalAlign=middle;whiteSpace=wrap;rounded=0;" parent="WIyWlLk6GJQsqaUBKTNV-1" vertex="1">
          <mxGeometry x="60" y="540" width="130" height="30" as="geometry" />
        </mxCell>
        <mxCell id="wjnB7LqlIOZ15J7eguzu-13" value="" style="rounded=0;whiteSpace=wrap;html=1;fillColor=none;strokeColor=#005700;fontColor=#ffffff;" parent="WIyWlLk6GJQsqaUBKTNV-1" vertex="1">
          <mxGeometry x="460" y="260" width="160" height="280" as="geometry" />
        </mxCell>
        <mxCell id="wjnB7LqlIOZ15J7eguzu-14" value="&lt;span style=&quot;font-family: Arial, Helvetica, sans-serif; font-size: 13px; text-align: start; background-color: rgb(255, 255, 255);&quot;&gt;&lt;font color=&quot;#00cc00&quot;&gt;TPA3116D2QDADRQ1&lt;br&gt;(klasse D)&lt;br&gt;&lt;/font&gt;&lt;/span&gt;" style="text;html=1;strokeColor=none;fillColor=none;align=center;verticalAlign=middle;whiteSpace=wrap;rounded=0;fontColor=#CC0000;" parent="WIyWlLk6GJQsqaUBKTNV-1" vertex="1">
          <mxGeometry x="440" y="540" width="170" height="50" as="geometry" />
        </mxCell>
        <mxCell id="wjnB7LqlIOZ15J7eguzu-25" value="" style="edgeStyle=orthogonalEdgeStyle;rounded=0;orthogonalLoop=1;jettySize=auto;html=1;fontColor=#000000;exitX=0.5;exitY=1;exitDx=0;exitDy=0;" parent="WIyWlLk6GJQsqaUBKTNV-1" source="wjnB7LqlIOZ15J7eguzu-17" target="wjnB7LqlIOZ15J7eguzu-24" edge="1">
          <mxGeometry relative="1" as="geometry" />
        </mxCell>
        <mxCell id="wjnB7LqlIOZ15J7eguzu-15" value="&lt;font color=&quot;#000000&quot;&gt;User interface&lt;br&gt;&lt;br&gt;&lt;br&gt;&lt;/font&gt;&lt;span style=&quot;color: rgb(0, 0, 0);&quot;&gt;Volume:&lt;br&gt;Rotary decoder&lt;br&gt;&lt;br&gt;&lt;/span&gt;&lt;font color=&quot;#000000&quot;&gt;Gain - POT&lt;br&gt;Treble - POT&lt;br&gt;&amp;nbsp;Mid-range&amp;nbsp;&lt;/font&gt;&lt;span style=&quot;color: rgb(0, 0, 0);&quot;&gt;- POT&lt;/span&gt;&lt;font color=&quot;#000000&quot;&gt;&lt;br&gt;&amp;nbsp;Bass&amp;nbsp;&lt;/font&gt;&lt;span style=&quot;color: rgb(0, 0, 0);&quot;&gt;- POT&lt;/span&gt;&lt;font color=&quot;#000000&quot;&gt;&lt;br&gt;&lt;br&gt;various switches &lt;br&gt;and leds&lt;br&gt;&lt;/font&gt;" style="rounded=1;whiteSpace=wrap;html=1;fontColor=#00CC00;fillColor=none;" parent="WIyWlLk6GJQsqaUBKTNV-1" vertex="1">
          <mxGeometry x="80" y="600" width="120" height="200" as="geometry" />
        </mxCell>
        <mxCell id="wjnB7LqlIOZ15J7eguzu-22" value="" style="edgeStyle=orthogonalEdgeStyle;rounded=0;orthogonalLoop=1;jettySize=auto;html=1;fontColor=#000000;entryX=0.5;entryY=1;entryDx=0;entryDy=0;" parent="WIyWlLk6GJQsqaUBKTNV-1" source="wjnB7LqlIOZ15J7eguzu-17" target="wjnB7LqlIOZ15J7eguzu-4" edge="1">
          <mxGeometry relative="1" as="geometry">
            <mxPoint x="340" y="550" as="targetPoint" />
          </mxGeometry>
        </mxCell>
        <mxCell id="wjnB7LqlIOZ15J7eguzu-17" value="&lt;span style=&quot;color: rgb(51, 51, 51); font-family: Arial, Helvetica, sans-serif; font-size: 13px; text-align: start; background-color: rgb(255, 255, 255);&quot;&gt;ATTINY828&lt;br&gt;&lt;/span&gt;" style="rounded=1;whiteSpace=wrap;html=1;fontColor=#00CC00;fillColor=none;" parent="WIyWlLk6GJQsqaUBKTNV-1" vertex="1">
          <mxGeometry x="280" y="620" width="120" height="80" as="geometry" />
        </mxCell>
        <mxCell id="wjnB7LqlIOZ15J7eguzu-19" value="ADC" style="text;html=1;strokeColor=none;fillColor=none;align=center;verticalAlign=middle;whiteSpace=wrap;rounded=0;fontColor=#000000;" parent="WIyWlLk6GJQsqaUBKTNV-1" vertex="1">
          <mxGeometry x="210" y="630" width="60" height="30" as="geometry" />
        </mxCell>
        <mxCell id="wjnB7LqlIOZ15J7eguzu-23" value="I2C" style="text;html=1;strokeColor=none;fillColor=none;align=center;verticalAlign=middle;whiteSpace=wrap;rounded=0;fontColor=#000000;" parent="WIyWlLk6GJQsqaUBKTNV-1" vertex="1">
          <mxGeometry x="330" y="590" width="60" height="30" as="geometry" />
        </mxCell>
        <mxCell id="wjnB7LqlIOZ15J7eguzu-24" value="&lt;font color=&quot;#000000&quot;&gt;Display&lt;/font&gt;" style="whiteSpace=wrap;html=1;fillColor=none;fontColor=#00CC00;rounded=1;" parent="WIyWlLk6GJQsqaUBKTNV-1" vertex="1">
          <mxGeometry x="280" y="750" width="120" height="60" as="geometry" />
        </mxCell>
        <mxCell id="wjnB7LqlIOZ15J7eguzu-30" value="" style="endArrow=classic;html=1;rounded=0;fontColor=#000000;exitX=0.5;exitY=1;exitDx=0;exitDy=0;entryX=0.5;entryY=0;entryDx=0;entryDy=0;fillColor=#fa6800;strokeColor=#C73500;" parent="WIyWlLk6GJQsqaUBKTNV-1" source="wjnB7LqlIOZ15J7eguzu-0" target="wjnB7LqlIOZ15J7eguzu-13" edge="1">
          <mxGeometry width="50" height="50" relative="1" as="geometry">
            <mxPoint x="460" y="300" as="sourcePoint" />
            <mxPoint x="510" y="250" as="targetPoint" />
            <Array as="points">
              <mxPoint x="440" y="200" />
              <mxPoint x="540" y="200" />
            </Array>
          </mxGeometry>
        </mxCell>
        <mxCell id="wjnB7LqlIOZ15J7eguzu-31" value="" style="endArrow=classic;html=1;rounded=0;fontColor=#000000;entryX=0.777;entryY=0;entryDx=0;entryDy=0;entryPerimeter=0;fillColor=#fa6800;strokeColor=#C73500;" parent="WIyWlLk6GJQsqaUBKTNV-1" target="wjnB7LqlIOZ15J7eguzu-10" edge="1">
          <mxGeometry width="50" height="50" relative="1" as="geometry">
            <mxPoint x="440" y="200" as="sourcePoint" />
            <mxPoint x="510" y="250" as="targetPoint" />
            <Array as="points">
              <mxPoint x="340" y="200" />
            </Array>
          </mxGeometry>
        </mxCell>
        <mxCell id="wjnB7LqlIOZ15J7eguzu-32" value="" style="endArrow=classic;html=1;rounded=0;fontColor=#000000;entryX=1;entryY=0.5;entryDx=0;entryDy=0;fillColor=#fa6800;strokeColor=#C73500;" parent="WIyWlLk6GJQsqaUBKTNV-1" target="wjnB7LqlIOZ15J7eguzu-17" edge="1">
          <mxGeometry width="50" height="50" relative="1" as="geometry">
            <mxPoint x="540" y="200" as="sourcePoint" />
            <mxPoint x="400" y="160" as="targetPoint" />
            <Array as="points">
              <mxPoint x="810" y="200" />
              <mxPoint x="810" y="660" />
            </Array>
          </mxGeometry>
        </mxCell>
        <mxCell id="LhNPrQ8mGIUaafcLL1y6-0" value="parallel aangestuurd" style="text;html=1;strokeColor=none;fillColor=none;align=center;verticalAlign=middle;whiteSpace=wrap;rounded=0;fontColor=#000000;" parent="WIyWlLk6GJQsqaUBKTNV-1" vertex="1">
          <mxGeometry x="330" y="720" width="150" height="30" as="geometry" />
        </mxCell>
        <mxCell id="Fv4fJ5fGjSkat43dneiL-0" value="general I/O" style="text;html=1;strokeColor=none;fillColor=none;align=center;verticalAlign=middle;whiteSpace=wrap;rounded=0;fontColor=#000000;" parent="WIyWlLk6GJQsqaUBKTNV-1" vertex="1">
          <mxGeometry x="210" y="660" width="60" height="30" as="geometry" />
        </mxCell>
        <mxCell id="Fv4fJ5fGjSkat43dneiL-1" value="" style="endArrow=classic;startArrow=classic;html=1;rounded=0;exitX=1;exitY=0.25;exitDx=0;exitDy=0;entryX=0.002;entryY=0.377;entryDx=0;entryDy=0;entryPerimeter=0;" parent="WIyWlLk6GJQsqaUBKTNV-1" source="wjnB7LqlIOZ15J7eguzu-15" target="wjnB7LqlIOZ15J7eguzu-17" edge="1">
          <mxGeometry width="50" height="50" relative="1" as="geometry">
            <mxPoint x="220" y="690" as="sourcePoint" />
            <mxPoint x="270" y="640" as="targetPoint" />
            <Array as="points">
              <mxPoint x="270" y="650" />
            </Array>
          </mxGeometry>
        </mxCell>
      </root>
    </mxGraphModel>
  </diagram>
</mxfile>
